<svg width="49" height="38" xmlns="http://www.w3.org/2000/svg">
  <g fill="none" fill-rule="evenodd">
    <path d="M24.625 30h-7.186l-.286 2h7.717l-.245-2zm4.975 2c1.334 0 1.334 2 0 2H13c-1.333 0-1.333-2 0-2h2.133l.45-3.142a1 1 0 0 1 .99-.858h8.937a1 1 0 0 1 .992.878L26.885 32H29.6zM13 30h16.6v-2H13v2zm0-2h16.6c1.334 0 1.334 2 0 2H13c-1.333 0-1.333-2 0-2z" fill="#1C88BB" fill-rule="nonzero"/>
    <path d="M30.826 28a1 1 0 0 1 0 2H4a4 4 0 0 1-4-4V4a4 4 0 0 1 4-4h35a4 4 0 0 1 4 4v5.911a1 1 0 0 1-2 0V4a2 2 0 0 0-2-2H4a2 2 0 0 0-2 2v22a2 2 0 0 0 2 2h26.826z" fill="#1C88BB" fill-rule="nonzero"/>
    <path d="M20.63 16.416v7.428L14 19.782v-7.427l6.63 4.06zm.87-1.508l-7.271-4.454L21.5 6l7.271 4.454-7.271 4.454zm.87 1.508L29 12.355v7.427l-6.63 4.062v-7.428z" fill="#1CAAD9"/>
    <g>
      <path d="M46 13c1.662 0 3 1.398 3 3.09v18.82c0 1.692-1.338 3.09-3 3.09h-9c-1.662 0-3-1.398-3-3.09V16.09c0-1.692 1.338-3.09 3-3.09h9zm0 2h-9c-.538 0-1 .483-1 1.09v18.82c0 .607.462 1.09 1 1.09h9c.538 0 1-.483 1-1.09V16.09c0-.607-.462-1.09-1-1.09z" fill="#1C88BB" fill-rule="nonzero"/>
      <path d="M41.094 24.86v3.467L38 26.432v-3.467l3.094 1.896zm.406-.703l-3.393-2.078L41.5 20l3.393 2.079-3.393 2.078zm.406.704L45 22.965v3.467l-3.094 1.895v-3.466z" fill="#1CAAD9"/>
      <path d="M39.136 35a1 1 0 0 1 0-2h5a1 1 0 1 1 0 2h-5z" fill="#1C88BB" fill-rule="nonzero"/>
    </g>
  </g>
</svg>
