<svg width="43" height="46" xmlns="http://www.w3.org/2000/svg">
  <g fill="none" fill-rule="evenodd">
    <path d="M-4-3h51v51H-4z"/>
    <g fill-rule="nonzero">
      <path d="M33 26.158h2v4.77c0 .39-.128.759-.363 1.082a1.658 1.658 0 0 1-1.089.68l-3.39.513c-.133.345-.269.665-.407.961a64.55 64.55 0 0 0 1.902 2.418c.286.344.447.745.447 1.178 0 .416-.144.801-.412 1.119-.43.58-1.161 1.376-2.207 2.407-1.268 1.251-2.013 1.814-2.721 1.814-.383 0-.749-.127-1.175-.406l-2.47-1.934c-.301.14-.606.267-.916.382-.205 1.657-.393 2.817-.57 3.499-.212.847-.87 1.359-1.744 1.359h-4.77c-.427 0-.825-.138-1.155-.405-.362-.293-.58-.7-.607-1.09l-.51-3.356a14.323 14.323 0 0 1-.92-.376L9.447 42.65c-.332.299-.75.45-1.206.45a1.7 1.7 0 0 1-1.208-.495c-1.854-1.678-3.073-2.92-3.693-3.778a1.839 1.839 0 0 1 .027-2.143c.227-.317.6-.804 1.125-1.468.304-.383.562-.715.772-.993-.18-.377-.337-.753-.47-1.13l-3.322-.49a1.676 1.676 0 0 1-1.095-.65A1.812 1.812 0 0 1 0 30.842v-4.77c0-.39.128-.759.363-1.082a1.652 1.652 0 0 1 1.068-.68l3.393-.51c.123-.332.264-.662.422-.991a54.242 54.242 0 0 0-1.899-2.413c-.284-.34-.447-.731-.447-1.156 0-.375.137-.724.383-1.08.413-.572 1.15-1.375 2.225-2.435C6.785 14.465 7.53 13.9 8.24 13.9c.422 0 .817.152 1.172.425l2.47 1.916c.302-.14.608-.267.919-.383.205-1.657.393-2.817.57-3.499.212-.847.87-1.359 1.744-1.359h1.242v2h-1.084c-.163.696-.353 1.943-.561 3.714l-.075.64-.614.196c-.618.198-1.217.448-1.796.75l-.569.298-.507-.394-2.888-2.239a3.502 3.502 0 0 0-.163.117c-.298.225-.697.582-1.188 1.067-.94.927-1.592 1.633-1.933 2.082.932 1.13 1.683 2.102 2.254 2.915l.356.508-.296.544c-.327.601-.58 1.198-.76 1.79l-.184.604-.624.094-3.725.56v4.414l4.339.64.177.62c.18.63.446 1.273.8 1.927l.297.551-.366.509c-.268.372-.663.888-1.187 1.55a45.39 45.39 0 0 0-1.013 1.316c.525.69 1.599 1.779 3.227 3.26l3.429-2.602.56.286c.539.276 1.134.521 1.788.735l.585.19.093.61.568 3.748h4.43c.163-.696.353-1.943.561-3.714l.075-.64.614-.196a11.258 11.258 0 0 0 1.796-.75l.572-.3.508.398 2.866 2.25c.052-.034.112-.077.18-.128.295-.223.691-.578 1.178-1.058.934-.92 1.588-1.628 1.953-2.105-1.005-1.231-1.758-2.205-2.263-2.926l-.354-.506.293-.543c.26-.48.519-1.084.775-1.811l.199-.567.594-.09L33 30.75v-4.592zM8.41 41.156l-.002-.002.002.002zm-.023-25.268z" fill="#1C88BB"/>
      <path d="M23 28.5c0 1.507-.545 2.822-1.611 3.889C20.322 33.455 19.007 34 17.5 34c-1.507 0-2.822-.545-3.889-1.611C12.545 31.322 12 30.007 12 28.5c0-1.507.545-2.822 1.611-3.889C14.678 23.545 15.993 23 17.5 23c1.507 0 2.822.545 3.889 1.611C22.455 25.678 23 26.993 23 28.5zm-2 0c0-.977-.334-1.783-1.025-2.475C19.283 25.335 18.477 25 17.5 25c-.977 0-1.783.334-2.475 1.025-.69.692-1.025 1.498-1.025 2.475 0 .977.334 1.783 1.025 2.475.692.69 1.498 1.025 2.475 1.025.977 0 1.783-.334 2.475-1.025.69-.692 1.025-1.498 1.025-2.475z" fill="#1CAAD9"/>
      <path d="M38.333 10.029l-.186-.596a7.243 7.243 0 0 0-.493-1.177l-.284-.546.36-.5c.174-.242.428-.574.765-1 .188-.237.343-.436.465-.597-.32-.376-.863-.925-1.6-1.615l-2.135 1.61-.558-.286a7.455 7.455 0 0 0-1.085-.446l-.585-.19-.093-.61L32.59 2h-2.212a31.414 31.414 0 0 0-.291 2.043l-.075.64-.614.195a6.8 6.8 0 0 0-1.085.454l-.569.297-.507-.393-1.618-1.255a9.7 9.7 0 0 0-.601.554A19.06 19.06 0 0 0 24 5.6a29.61 29.61 0 0 1 1.263 1.648l.356.507-.296.545a5.757 5.757 0 0 0-.455 1.071l-.184.604-.624.094-2.061.31v2.182l2.683.395.177.62c.107.376.266.76.479 1.154l.298.551-.366.508c-.175.243-.43.575-.766 1-.19.24-.346.441-.47.603.328.381.865.92 1.616 1.61l2.122-1.61.56.286c.325.167.687.316 1.085.446l.585.19.093.61L30.41 21h2.212c.086-.453.185-1.139.291-2.043l.075-.64.614-.195a6.8 6.8 0 0 0 1.085-.454l.572-.298.508.397 1.604 1.26c.16-.132.363-.318.605-.555.45-.444.794-.807 1.029-1.081a31.517 31.517 0 0 1-1.27-1.653l-.354-.506.294-.543a7.8 7.8 0 0 0 .47-1.101l.199-.567.594-.09L41 12.62v-2.182l-2.667-.408zm.955 7.01a.468.468 0 0 0-.03.036l.03-.037zm-13.943 2.196l.023-.018a.119.119 0 0 0-.023.018zm-1.509-2.09a.595.595 0 0 0-.011-.017l.011.017zm2.02-13.342a.35.35 0 0 0 .01-.004l-.01.004zm6.657-2.316a.56.56 0 0 0 .012.08l-.012-.08zm6.725 4.478l-.047-.059c.014.02.03.04.047.06zm2.518 2.564c.374.058.7.252.93.553.205.27.314.59.314.928v3.035c0 .328-.107.637-.3.903a1.421 1.421 0 0 1-.933.578l-1.95.295-.101.238c.28.37.637.823 1.07 1.352.234.28.368.616.368.982 0 .347-.12.672-.34.937-.288.388-.762.903-1.434 1.566-.894.881-1.393 1.258-1.987 1.258-.32 0-.619-.103-.972-.335l-1.4-1.096c-.065.029-.13.056-.197.082-.122.956-.235 1.636-.344 2.055-.175.7-.74 1.14-1.462 1.14h-3.036c-.354 0-.688-.116-.964-.339-.307-.249-.494-.599-.516-.92l-.294-1.928a9.484 9.484 0 0 1-.207-.085l-1.383 1.047c-.28.252-.634.38-1.01.38-.402 0-.767-.161-1.013-.41-1.198-1.083-1.988-1.887-2.404-2.465a1.534 1.534 0 0 1 .019-1.783c.148-.208.389-.522.726-.949.133-.167.251-.318.355-.453a7.773 7.773 0 0 1-.143-.343l-1.904-.281a1.43 1.43 0 0 1-.93-.553A1.517 1.517 0 0 1 20 12.99V9.955c0-.328.107-.637.3-.903.217-.298.522-.506.92-.578l1.95-.294.111-.259a36.382 36.382 0 0 0-1.067-1.345 1.498 1.498 0 0 1-.368-.969c0-.323.113-.612.312-.9.278-.384.758-.908 1.455-1.596.9-.887 1.4-1.265 1.994-1.265.355 0 .682.126.969.346l1.4 1.086c.066-.029.133-.057.2-.083.122-.956.235-1.636.344-2.055.175-.7.74-1.14 1.462-1.14h3.036c.354 0 .688.116.964.339.307.249.494.599.516.92l.294 1.928c.07.028.14.056.208.085L36.423 2.2c.27-.237.609-.354.97-.354.365 0 .7.134 1.02.401 1.202 1.11 1.982 1.91 2.371 2.45.208.262.302.577.302.91 0 .329-.107.637-.296.896-.148.208-.389.522-.726.949a47.42 47.42 0 0 0-.359.457c.049.11.095.219.138.328l1.913.292z" fill="#1C88BB"/>
      <path d="M35 11.5c0 .955-.35 1.799-1.025 2.475A3.408 3.408 0 0 1 31.5 15c-.955 0-1.799-.35-2.475-1.025A3.408 3.408 0 0 1 28 11.5c0-.955.35-1.799 1.025-2.475A3.408 3.408 0 0 1 31.5 8c.955 0 1.799.35 2.475 1.025A3.408 3.408 0 0 1 35 11.5zm-2 0c0-.425-.139-.76-.44-1.06-.3-.301-.635-.44-1.06-.44-.425 0-.76.139-1.06.44-.301.3-.44.635-.44 1.06 0 .425.139.76.44 1.06.3.301.635.44 1.06.44.425 0 .76-.139 1.06-.44.301-.3.44-.635.44-1.06z" fill="#1CAAD9"/>
    </g>
  </g>
</svg>
